<?xml version="1.0" encoding="UTF-8"?>
<svg width="120" height="120" viewBox="0 0 120 120" fill="none" xmlns="http://www.w3.org/2000/svg">
  <!-- Cute Optimus Prime-inspired robot -->
  <!-- Head -->
  <rect x="32" y="14" width="56" height="32" rx="8" fill="#3575C7" stroke="#1B3358" stroke-width="2"/>
  <!-- Helmet Sides -->
  <rect x="26" y="20" width="8" height="20" rx="3" fill="#1B3358"/>
  <rect x="86" y="20" width="8" height="20" rx="3" fill="#1B3358"/>
  <!-- Head Crest -->
  <rect x="56" y="6" width="8" height="14" rx="3" fill="#6EC1E4" stroke="#1B3358" stroke-width="1"/>
  <!-- Faceplate -->
  <rect x="44" y="28" width="32" height="12" rx="6" fill="#E0E5EC" stroke="#A0A5AA" stroke-width="1"/>
  <!-- Eyes -->
  <ellipse cx="52" cy="32" rx="3" ry="4" fill="#7FDBFF"/>
  <ellipse cx="68" cy="32" rx="3" ry="4" fill="#7FDBFF"/>
  <ellipse cx="52" cy="33" rx="1.2" ry="2" fill="#fff" opacity="0.7"/>
  <ellipse cx="68" cy="33" rx="1.2" ry="2" fill="#fff" opacity="0.7"/>
  <!-- Smile (subtle) -->
  <path d="M56 38 Q60 42 64 38" stroke="#A0A5AA" stroke-width="1" fill="none"/>
  <!-- Body -->
  <rect x="38" y="46" width="44" height="28" rx="7" fill="#E94F37" stroke="#A02C2C" stroke-width="2"/>
  <!-- Chest Windows -->
  <rect x="44" y="50" width="10" height="10" rx="2" fill="#B3E5FC" stroke="#1B3358" stroke-width="0.7"/>
  <rect x="66" y="50" width="10" height="10" rx="2" fill="#B3E5FC" stroke="#1B3358" stroke-width="0.7"/>
  <!-- Chest Yellow Lights -->
  <rect x="56" y="62" width="8" height="4" rx="1.5" fill="#FFD600" stroke="#B89B00" stroke-width="0.5"/>
  <!-- Arms -->
  <rect x="26" y="52" width="10" height="22" rx="4" fill="#3575C7" stroke="#1B3358" stroke-width="1"/>
  <rect x="84" y="52" width="10" height="22" rx="4" fill="#3575C7" stroke="#1B3358" stroke-width="1"/>
  <!-- Hands -->
  <ellipse cx="31" cy="76" rx="5" ry="3" fill="#F4D35E" stroke="#B89B00" stroke-width="1"/>
  <ellipse cx="89" cy="76" rx="5" ry="3" fill="#F4D35E" stroke="#B89B00" stroke-width="1"/>
  <!-- Legs -->
  <rect x="44" y="74" width="8" height="18" rx="3" fill="#3575C7" stroke="#1B3358" stroke-width="1"/>
  <rect x="68" y="74" width="8" height="18" rx="3" fill="#3575C7" stroke="#1B3358" stroke-width="1"/>
  <!-- Feet -->
  <ellipse cx="48" cy="94" rx="6" ry="3" fill="#7FDBFF" stroke="#1B3358" stroke-width="1"/>
  <ellipse cx="72" cy="94" rx="6" ry="3" fill="#7FDBFF" stroke="#1B3358" stroke-width="1"/>
</svg>
